<svg id="Layer_1" data-name="Layer 1" xmlns="http://www.w3.org/2000/svg" xmlns:xlink="http://www.w3.org/1999/xlink" viewBox="0 0 119.05 34.99"><defs><style>.cls-1{fill:none;stroke:#231f20;stroke-miterlimit:10;}.cls-2{fill:url(#linear-gradient);}.cls-3{fill:url(#linear-gradient-2);}.cls-4{fill:#6e9aa9;}.cls-5{fill:url(#linear-gradient-3);}.cls-6{fill:#6fa1b3;}.cls-7{fill:url(#linear-gradient-4);}.cls-8{fill:url(#linear-gradient-5);}.cls-9{fill:url(#linear-gradient-6);}.cls-10{fill:#43c5e4;}.cls-11{fill:#182333;}.cls-12{fill:#9aca3c;}.cls-13{fill:#95c4ce;}.cls-14{fill:#1a2b3c;}.cls-15{fill:#0bbcd4;}.cls-16{fill:#8bc249;}</style><linearGradient id="linear-gradient" x1="14.7" y1="16.34" x2="13.34" y2="18.63" gradientUnits="userSpaceOnUse"><stop offset="0" stop-color="#fbfeff"/><stop offset="1" stop-color="#314258"/></linearGradient><linearGradient id="linear-gradient-2" x1="14.25" y1="23.74" x2="18.08" y2="23.74" xlink:href="#linear-gradient"/><linearGradient id="linear-gradient-3" x1="12.42" y1="18.79" x2="14.04" y2="15.94" xlink:href="#linear-gradient"/><linearGradient id="linear-gradient-4" x1="15.46" y1="12.59" x2="14.6" y2="18.12" gradientUnits="userSpaceOnUse"><stop offset="0" stop-color="#95c4ce"/><stop offset="0.44" stop-color="#c9e2e7"/><stop offset="0.81" stop-color="#edf6f8"/><stop offset="1" stop-color="#fbfeff"/></linearGradient><linearGradient id="linear-gradient-5" x1="7.29" y1="18.99" x2="15.33" y2="18.99" gradientUnits="userSpaceOnUse"><stop offset="0" stop-color="#95c4ce"/><stop offset="0.2" stop-color="#99c6d0"/><stop offset="0.4" stop-color="#a5cdd6"/><stop offset="0.59" stop-color="#b9d9df"/><stop offset="0.79" stop-color="#d5e9ed"/><stop offset="0.99" stop-color="#f9fdfe"/><stop offset="1" stop-color="#fbfeff"/></linearGradient><linearGradient id="linear-gradient-6" x1="15.28" y1="15.45" x2="23.81" y2="15.45" gradientUnits="userSpaceOnUse"><stop offset="0" stop-color="#fbfeff"/><stop offset="0.01" stop-color="#f9fdfe"/><stop offset="0.21" stop-color="#d5e9ed"/><stop offset="0.41" stop-color="#b9d9df"/><stop offset="0.6" stop-color="#a5cdd6"/><stop offset="0.8" stop-color="#99c6d0"/><stop offset="1" stop-color="#95c4ce"/></linearGradient></defs><path class="cls-1" d="M26.42,13a.52.52,0,0,1-.52.52.51.51,0,0,1-.47-.3.54.54,0,0,1-.05-.22.53.53,0,0,1,.52-.52A.52.52,0,0,1,26.42,13Z" transform="translate(-1.82 -2.51)"/><path class="cls-1" d="M11.64,22.38v1.29l1.88,2-2.16.51v1.07l3-.67v-1Zm-1.09-1.66L8.62,26.4,9.4,27l2-5.75Zm-2.23-.09-2.81.87v1.05L8.36,25.7V24.53L6.3,22.35l2.06-.45ZM30,13a.6.6,0,1,0,.53.6A.57.57,0,0,0,30,13Z" transform="translate(-1.82 -2.51)"/><path class="cls-2" d="M17.15,28.29l-1.85-.95-.11-6.76L9.1,17.33V14.69L7,13.51,3.41,11.57V28.62l4.37,2.31,9.42,5ZM8.36,24.53V25.7L5.51,22.55V21.5l2.81-.87,0,1.27-2.06.45Zm.26,1.87,1.93-5.68.88.49L9.4,27Zm5.7.16-3,.67V26.16l2.16-.51-1.88-2V22.38l2.68,3.13Z" transform="translate(-1.82 -2.51)"/><path class="cls-3" d="M29,12.66h0l-3.4,1.83L25.47,17l-8.36,4.39,0,6.86.05,7.61,0,0,6.57-3.47L31,28.62v-17ZM20.09,31.6V29.47l1.5-2.39.08,3.73Zm3.85-2-1.63,1.06,0-4.6.77-1.15.82.3Zm.67-.28-.05-4,.52-.07,1-1.9.06,5.16Zm3.8-2.15-1.53.94L26.83,22,28,19.91l.47.18Zm.09-7.56-.77-.49-2.81,5.46L23,24,20.09,28.5,20,27.41l2.82-4.53,1.81.62,2.54-4.65-.67-.32,2-2ZM30,14.18a.6.6,0,1,1,.53-.59A.57.57,0,0,1,30,14.18Z" transform="translate(-1.82 -2.51)"/><polygon class="cls-4" points="16.73 2.66 11.14 5.39 9.86 4.83 15.41 1.98 16.73 2.66"/><path class="cls-5" d="M26.82,11.57l-.05,0,2-1.15-1.59-.81L18.55,5.16,13,7.89l-1.29-.56L3.41,11.57,7,13.51,9.1,14.69v0l2.53-1.35,6.83,3.5,5.67-2.92,1.49.61h0L29,12.66Zm-.92,1.94a.51.51,0,0,1-.47-.3.54.54,0,0,1-.05-.22.53.53,0,0,1,.52-.52.52.52,0,0,1,.52.52A.52.52,0,0,1,25.9,13.51Z" transform="translate(-1.82 -2.51)"/><polygon class="cls-6" points="29.22 9.06 27.2 10.15 27.2 10.15 25 9.06 24.95 9.04 26.94 7.89 29.22 9.06"/><polygon class="cls-7" points="23.8 11.98 15.28 16.57 7.29 12.19 7.29 12.14 9.81 10.79 16.64 14.29 22.32 11.37 23.8 11.98"/><polygon class="cls-8" points="15.33 25.79 13.49 24.83 13.37 18.08 7.29 14.83 7.29 12.19 15.28 16.57 15.29 18.92 15.33 25.79"/><polygon class="cls-9" points="23.8 11.98 23.65 14.54 15.29 18.92 15.28 16.57 23.8 11.98 23.8 11.98"/><line class="cls-1" x1="16.75" y1="2.65" x2="16.73" y2="2.66"/><line class="cls-1" x1="9.86" y1="4.83" x2="9.85" y2="4.83"/><path class="cls-10" d="M11.27,31.16a.48.48,0,1,1-1,0,.49.49,0,0,1,0-.12l-5-2.57.06-3.31-1-.5V20.29l-1.8-.87.11,8.7a.64.64,0,0,1-.14,1.27.64.64,0,1,1,0-1.28l-.12-8.92,2.09,1v4.37l1.05.5-.06,3.31,4.95,2.52a.49.49,0,0,1,.42-.26A.5.5,0,0,1,11.27,31.16Z" transform="translate(-1.82 -2.51)"/><path class="cls-11" d="M23.86,32.34v1.19l0,0-6,3.18a.77.77,0,0,1,0,.15.62.62,0,0,1-1.23,0,.36.36,0,0,1,0-.11L7.71,32V30.93h.14v1l8.79,4.67a.61.61,0,0,1,1.1,0l6-3.15V32.34Z" transform="translate(-1.82 -2.51)"/><polygon class="cls-12" points="19.85 28.31 18.27 29.1 18.27 26.96 19.78 24.57 19.85 28.31"/><polygon class="cls-12" points="22.13 22.66 22.13 27.05 20.49 28.11 20.53 23.51 21.31 22.36 22.13 22.66"/><line class="cls-1" x1="20.49" y1="28.15" x2="20.49" y2="28.11"/><polygon class="cls-12" points="24.33 26.01 22.8 26.77 22.75 22.82 23.26 22.76 24.26 20.86 24.33 26.01"/><polygon class="cls-12" points="26.63 17.59 26.59 24.62 25.06 25.57 25.01 19.5 26.16 17.4 26.63 17.59"/><polygon class="cls-12" points="26.75 14.04 26.68 17.06 25.91 16.57 23.11 22.04 21.16 21.45 18.27 26 18.21 24.91 21.02 20.38 22.84 21 25.38 16.35 24.7 16.02 26.75 14.04"/><polygon class="cls-10" points="4.49 19.84 6.55 22.03 6.55 23.19 3.7 20.05 3.7 18.99 6.5 18.13 6.55 19.39 4.49 19.84"/><polygon class="cls-10" points="9.61 18.7 7.58 24.45 6.8 23.89 8.74 18.22 9.61 18.7"/><polygon class="cls-10" points="12.51 23.01 12.51 24.05 9.55 24.72 9.55 23.66 11.71 23.15 9.83 21.16 9.83 19.88 12.51 23.01"/><path class="cls-10" d="M12.29,5.86a.62.62,0,0,1-.62.62.61.61,0,0,1-.52-.28L2.21,10.82V17l1.23.64-.06.12L2.07,17v-6.3l0,0,9-4.64a.52.52,0,0,1,0-.21.62.62,0,1,1,1.24,0Z" transform="translate(-1.82 -2.51)"/><path class="cls-12" d="M27.22,8.38v1.2h-.14V8.47L17.29,3.61a.72.72,0,1,1,.11-.39.76.76,0,0,1,0,.27Z" transform="translate(-1.82 -2.51)"/><path class="cls-13" d="M26.52,13.05a.59.59,0,0,1-1.09.31l-1.15.58-.15-.06,1.24-.64a1.11,1.11,0,0,1,0-.19.59.59,0,0,1,1.17,0Z" transform="translate(-1.82 -2.51)"/><path class="cls-10" d="M30.53,13.59A.54.54,0,1,1,30,13,.57.57,0,0,1,30.53,13.59Z" transform="translate(-1.82 -2.51)"/><ellipse class="cls-10" cx="4.26" cy="13.2" rx="0.45" ry="0.5" transform="translate(-8.11 1.69) rotate(-31.64)"/><path class="cls-13" d="M11.12,11.49a.53.53,0,0,1-.56.49.63.63,0,0,1-.39-.13L7,13.59v2.07a.52.52,0,0,1,.43.52.52.52,0,0,1-1,0,.52.52,0,0,1,.46-.52V13.5l3.26-1.76a.41.41,0,0,1-.08-.25.57.57,0,0,1,1.13,0Z" transform="translate(-1.82 -2.51)"/><circle class="cls-10" cx="14.14" cy="31.54" r="0.46"/><path class="cls-13" d="M18.73,23.26a.51.51,0,0,1-.51.51l-.06,3.95-1,.63-.08-.12.91-.59.06-3.89a.51.51,0,0,1-.37-.49.51.51,0,0,1,1,0Z" transform="translate(-1.82 -2.51)"/><ellipse class="cls-10" cx="28.01" cy="25.3" rx="0.42" ry="0.49"/><path class="cls-12" d="M33.18,23.36a.59.59,0,0,1-.58.58.58.58,0,0,1-.08-1.15V11.65a.67.67,0,1,1,.15,0V22.79A.58.58,0,0,1,33.18,23.36Z" transform="translate(-1.82 -2.51)"/><path class="cls-12" d="M20.45,8.6a9.16,9.16,0,0,0-5.38,2.85s1.12.43,1.25.79c0,0,4.63-.52,5.52-2.54Zm-.68,1.65c-.42,0-.75-.16-.75-.37s.33-.37.75-.37.75.17.75.37S20.18,10.25,19.77,10.25Z" transform="translate(-1.82 -2.51)"/><path class="cls-12" d="M20.71,8.6h1.57a1.42,1.42,0,0,1-.26,1Z" transform="translate(-1.82 -2.51)"/><path class="cls-12" d="M15.25,11a5.68,5.68,0,0,1,1-.89,3,3,0,0,0-2.76.74A5.73,5.73,0,0,1,15.25,11Z" transform="translate(-1.82 -2.51)"/><path class="cls-12" d="M16.13,12.24l-1-.61S15.05,12.13,16.13,12.24Z" transform="translate(-1.82 -2.51)"/><path class="cls-12" d="M14.74,11.68a2.34,2.34,0,0,0,1.12.8,1.34,1.34,0,0,1-1.16.83.39.39,0,0,0,.16-.49,10.67,10.67,0,0,1-1.85.54s.11-.42,1.11-1.12c0,0-.6-.1-.77.12C13.35,12.36,13.59,11.65,14.74,11.68Z" transform="translate(-1.82 -2.51)"/><path class="cls-12" d="M17.12,12.36a11.16,11.16,0,0,0,1.69-.43s-.09,1.1-1.65,1.43C17.16,13.36,17.29,12.47,17.12,12.36Z" transform="translate(-1.82 -2.51)"/><path class="cls-14" d="M44.71,12.81c0-3.42-2.24-5.1-4.65-5.1s-4.66,1.71-4.66,5.1c0,2.83,1.54,4.45,3.44,4.93a3,3,0,0,0,3.3,2.92,3.82,3.82,0,0,0,2-.47l-.32-.82a3,3,0,0,1-1.06.17,1.61,1.61,0,0,1-1.63-1.77C43.11,17.32,44.71,15.67,44.71,12.81Zm-4.65,4.24c-1.48,0-2.06-1.81-2.06-4.24s.58-4.26,2.06-4.26,2,1.83,2,4.26S41.53,17.05,40.06,17.05Z" transform="translate(-1.82 -2.51)"/><path class="cls-14" d="M46.28,15.21c0,1.94.82,2.64,2.08,2.64a3,3,0,0,0,2.38-1.3l.09,1.24,3-.15V17l-.77-.17V12.63l0-2.08-.23-.16L50,10.87v.57l.8.18,0,4.13a2,2,0,0,1-1.27.68c-.5,0-.79-.29-.79-1.21V12.63l.07-2.08-.23-.16-3,.43v.62l.84.18Z" transform="translate(-1.82 -2.51)"/><path class="cls-14" d="M59.52,17.85c1.65,0,3.13-1.46,3.13-3.83s-1.27-3.71-2.87-3.71a2.82,2.82,0,0,0-2.13.95V9.17l.06-2L57.47,7l-3,.66v.62l.91.11v6.2c0,.62,0,1.51,0,2.23l-.79.17v.68l2.78.2.25-.88A2.38,2.38,0,0,0,59.52,17.85Zm.65-3.79c0,1.74-.63,2.55-1.48,2.55a1.47,1.47,0,0,1-1-.41V12a1.67,1.67,0,0,1,1-.44C59.58,11.58,60.17,12.33,60.17,14.06Z" transform="translate(-1.82 -2.51)"/><path class="cls-14" d="M67.26,17.85a3.2,3.2,0,0,0,3.08-1.71l-.5-.48a2.36,2.36,0,0,1-1.78.79c-1,0-1.85-.71-2-2.25h4.24a3.1,3.1,0,0,0,.08-.79,2.88,2.88,0,0,0-3-3.1,3.67,3.67,0,0,0-3.78,3.78A3.47,3.47,0,0,0,67.26,17.85Zm0-6.78c.53,0,1,.47,1,1.44,0,.65-.18.92-.88.92H66.09C66.16,11.65,66.67,11.07,67.24,11.07Z" transform="translate(-1.82 -2.51)"/><path class="cls-15" d="M41.52,25.11l-.69-.32c-.87-.39-1.34-.79-1.34-1.57A1.4,1.4,0,0,1,41,21.88a2.46,2.46,0,0,1,1,.21l.28,1.73h1.35l.12-2.06A5.2,5.2,0,0,0,41,21c-2.23,0-3.65,1.07-3.65,2.84,0,1.62,1,2.49,2.72,3.28l.63.28c.88.4,1.26.75,1.26,1.52s-.56,1.4-1.61,1.4a3.89,3.89,0,0,1-1.44-.27l-.29-1.81H37.23l-.09,2.19a6.39,6.39,0,0,0,3.18.76c2.51,0,3.84-1.22,3.84-2.95C44.16,26.76,43.39,26,41.52,25.11Z" transform="translate(-1.82 -2.51)"/><path class="cls-15" d="M48.74,23.61A3.6,3.6,0,0,0,45,27.35a3.73,3.73,0,1,0,7.46,0A3.59,3.59,0,0,0,48.74,23.61Zm0,6.78c-.83,0-1.24-.91-1.24-3s.41-3,1.24-3,1.24.92,1.24,3S49.56,30.39,48.74,30.39Z" transform="translate(-1.82 -2.51)"/><path class="cls-15" d="M56.41,27.85V22.47l.06-2-.24-.15-3.07.66v.62l.91.15v6.15c0,.74,0,1.49,0,2.23l-.81.17v.68h4v-.68l-.81-.16C56.42,29.34,56.41,28.6,56.41,27.85Z" transform="translate(-1.82 -2.51)"/><path class="cls-15" d="M65.4,25.93l0-2.08-.23-.16-2.92.48v.57l.8.18L63,29.05a2,2,0,0,1-1.27.68c-.5,0-.79-.29-.79-1.21V25.93l.07-2.08-.23-.16-3,.43v.62l.84.19-.05,3.58c0,1.94.81,2.64,2.07,2.64a3,3,0,0,0,2.38-1.3l.09,1.24,3-.15v-.68l-.77-.16Z" transform="translate(-1.82 -2.51)"/><path class="cls-15" d="M70.66,30c-.44,0-.75-.31-.75-1V24.84h1.54v-1H69.92l0-2h-1.5l-.74,2L66.62,24v.87h.95v2.8c0,.57,0,1,0,1.47,0,1.45.78,2,2.11,2A2.2,2.2,0,0,0,71.81,30l-.36-.35A1.3,1.3,0,0,1,70.66,30Z" transform="translate(-1.82 -2.51)"/><path class="cls-15" d="M75.3,27.85v-2l0-2.13-.25-.16-3.08,1v.58l.91.13c0,.58,0,1,0,1.85v.7c0,.62,0,1.51,0,2.23l-.79.17v.68h3.9v-.68l-.73-.15C75.3,29.37,75.3,28.47,75.3,27.85Z" transform="translate(-1.82 -2.51)"/><path class="cls-15" d="M74.1,22.53a1.17,1.17,0,1,0-1.24-1.17A1.18,1.18,0,0,0,74.1,22.53Z" transform="translate(-1.82 -2.51)"/><path class="cls-15" d="M80.5,23.61a3.59,3.59,0,0,0-3.72,3.74,3.73,3.73,0,1,0,7.45,0A3.58,3.58,0,0,0,80.5,23.61Zm0,6.78c-.83,0-1.24-.91-1.24-3s.41-3,1.24-3,1.25.92,1.25,3S81.33,30.39,80.5,30.39Z" transform="translate(-1.82 -2.51)"/><path class="cls-15" d="M92.64,27.85V26.14c0-1.7-.85-2.53-2.12-2.53a2.94,2.94,0,0,0-2.35,1.23l-.09-1.07-.25-.16-2.9,1v.58l.9.13c0,.58,0,.89,0,1.7v.85c0,.62,0,1.51,0,2.23l-.8.17v.68h3.87v-.68l-.69-.15c0-.72,0-1.63,0-2.25V25.58A2.18,2.18,0,0,1,89.48,25c.58,0,.82.34.82,1.28v1.54c0,.64,0,1.52,0,2.23l-.76.17v.68h3.87v-.68l-.73-.15C92.64,29.38,92.64,28.49,92.64,27.85Z" transform="translate(-1.82 -2.51)"/><path class="cls-16" d="M102.67,30.09h-2.54c0-1.22,0-2.43,0-3.48v-.77c0-1.23,0-2.44,0-3.64l1.22-.12v-.79H96.51v.79l1.1.11c0,1.21,0,2.43,0,3.65v.85c0,1,0,2.15,0,3.34l-1.11.11v.79h7.6l.15-2.88h-1.18Z" transform="translate(-1.82 -2.51)"/><path class="cls-16" d="M111.56,30.1c-.21,0-.33-.14-.33-.43V26.38c0-2-.74-2.77-2.62-2.77-2.12,0-3.3.83-3.38,2.05a.92.92,0,0,0,1,.74c.57,0,1-.4,1.08-1.37l.06-.64.41,0c.93,0,1.19.38,1.19,1.68v.48l-1.12.31c-2.26.66-2.84,1.39-2.84,2.44a1.76,1.76,0,0,0,1.92,1.87,2.62,2.62,0,0,0,2.13-1.09,1.5,1.5,0,0,0,1.58,1.08A1.69,1.69,0,0,0,112.4,30l-.39-.26C111.84,30,111.72,30.1,111.56,30.1ZM108.05,30c-.5,0-.88-.34-.88-1.08a1.6,1.6,0,0,1,1.09-1.47,6.21,6.21,0,0,1,.7-.24v2.38A1.57,1.57,0,0,1,108.05,30Z" transform="translate(-1.82 -2.51)"/><path class="cls-16" d="M118,23.61a2.85,2.85,0,0,0-2.14.95V22.47l.06-2-.23-.15-3,.66v.62l.91.12v6.19c0,.62,0,1.51,0,2.23l-.79.17v.68l2.78.2.25-.87a2.39,2.39,0,0,0,1.95.88c1.65,0,3.13-1.46,3.13-3.82S119.6,23.61,118,23.61Zm-1.09,6.3a1.51,1.51,0,0,1-1-.4V25.32a1.65,1.65,0,0,1,1-.43c.88,0,1.46.74,1.46,2.47S117.76,29.91,116.91,29.91Z" transform="translate(-1.82 -2.51)"/></svg>